HIERARCHY
ROOT joint_Root
{
	OFFSET 0.0 0.0 0.0
	CHANNELS 6 Xposition Yposition Zposition Zrotation Xrotation Yrotation 
	JOINT Hips
	{
		OFFSET 4.5925 91.4895 -427.239
		CHANNELS 6 Xposition Yposition Zposition Zrotation Xrotation Yrotation 
		JOINT Spine
		{
			OFFSET 15.7357 0.0 0.0
			CHANNELS 6 Xposition Yposition Zposition Zrotation Xrotation Yrotation 
			JOINT Chest
			{
				OFFSET 8.98455 -0.406207 0.0
				CHANNELS 6 Xposition Yposition Zposition Zrotation Xrotation Yrotation 
				JOINT Neck
				{
					OFFSET 16.3773 0.0 0.0
					CHANNELS 6 Xposition Yposition Zposition Zrotation Xrotation Yrotation 
					JOINT Head
					{
						OFFSET 6.45672 0.0 0.0
						CHANNELS 6 Xposition Yposition Zposition Zrotation Xrotation Yrotation 
						End Site
						{
							OFFSET 0.0 0.0 0.0
						}
					}
				}
				JOINT Shoulder_L
				{
					OFFSET 12.9942 -0.242716 4.98039
					CHANNELS 6 Xposition Yposition Zposition Zrotation Xrotation Yrotation 
					JOINT UpperArm_L
					{
						OFFSET 5.34809 0.0 0.0
						CHANNELS 6 Xposition Yposition Zposition Zrotation Xrotation Yrotation 
						JOINT LowerArm_L
						{
							OFFSET 24.3286 1.87007e-05 0.0
							CHANNELS 6 Xposition Yposition Zposition Zrotation Xrotation Yrotation 
							JOINT Hand_L
							{
								OFFSET 22.2916 0.0 0.0
								CHANNELS 6 Xposition Yposition Zposition Zrotation Xrotation Yrotation 
								End Site
								{
									OFFSET 0.0 0.0 0.0
								}
							}
						}
					}
				}
				JOINT Shoulder_R
				{
					OFFSET 12.9945 -0.242716 -4.98039
					CHANNELS 6 Xposition Yposition Zposition Zrotation Xrotation Yrotation 
					JOINT UpperArm_R
					{
						OFFSET -5.34813 0.0 0.0
						CHANNELS 6 Xposition Yposition Zposition Zrotation Xrotation Yrotation 
						JOINT LowerArm_R
						{
							OFFSET -24.3289 0.000322201 0.0
							CHANNELS 6 Xposition Yposition Zposition Zrotation Xrotation Yrotation 
							JOINT Hand_R
							{
								OFFSET -22.2915 -0.000108084 0.0
								CHANNELS 6 Xposition Yposition Zposition Zrotation Xrotation Yrotation 
								End Site
								{
									OFFSET 0.0 0.0 0.0
								}
							}
						}
					}
				}
			}
		}
		JOINT UpperLeg_L
		{
			OFFSET -2.19248 -6.46944 0.0
			CHANNELS 6 Xposition Yposition Zposition Zrotation Xrotation Yrotation 
			JOINT LowerLeg_L
			{
				OFFSET 39.0811 0.0 -1.23785e-05
				CHANNELS 6 Xposition Yposition Zposition Zrotation Xrotation Yrotation 
				JOINT Foot_L
				{
					OFFSET 40.9854 0.0 -1.26872e-05
					CHANNELS 6 Xposition Yposition Zposition Zrotation Xrotation Yrotation 
					JOINT Toes_L
					{
						OFFSET 11.7543 0.0 0.0
						CHANNELS 6 Xposition Yposition Zposition Zrotation Xrotation Yrotation 
						End Site
						{
							OFFSET 0.0 0.0 0.0
						}
					}
				}
			}
		}
		JOINT UpperLeg_R
		{
			OFFSET -2.19251 6.46944 0.0
			CHANNELS 6 Xposition Yposition Zposition Zrotation Xrotation Yrotation 
			JOINT LowerLeg_R
			{
				OFFSET -39.0811 -0.00228153 -0.0401928
				CHANNELS 6 Xposition Yposition Zposition Zrotation Xrotation Yrotation 
				JOINT Foot_R
				{
					OFFSET -40.9854 0.0 0.0
					CHANNELS 6 Xposition Yposition Zposition Zrotation Xrotation Yrotation 
					JOINT Toes_R
					{
						OFFSET -11.7543 0.0 0.0
						CHANNELS 6 Xposition Yposition Zposition Zrotation Xrotation Yrotation 
						End Site
						{
							OFFSET 0.0 0.0 0.0
						}
					}
				}
			}
		}
	}
}
MOTION
Frames:	4
Frame Time:	0.0333333
0.000000 0.000000 0.000000 0.000000 0.000000 -0.000000 -172.754000 84.305600 193.281000 96.754200 78.449500 -6.513540 15.735700 0.000005 -0.000001 109.827000 82.172600 -111.621000 8.984550 -0.406207 -0.000000 7.069620 5.302400 -3.915240 16.377300 -0.000001 -0.000001 -2.529350 0.337538 -0.154286 6.456720 -0.000001 -0.000000 -6.629460 -1.983100 -2.654620 12.994200 -0.242716 4.980390 -92.399100 5.734180 -67.252800 5.348090 -0.000007 -0.000001 -64.646900 26.379300 18.623500 24.328600 0.000019 0.000005 9.300670 5.330620 -60.474900 22.291600 -0.000001 0.000005 13.509800 5.593390 -10.949300 12.994500 -0.242716 -4.980390 88.395100 11.547200 -82.032900 -5.348130 -0.000001 -0.000004 -67.928000 31.772300 -9.313780 -24.328900 0.000322 -0.000009 -13.731600 -8.768100 -58.072800 -22.291500 -0.000108 -0.000004 19.933000 5.527570 -7.691400 -2.192480 -6.469440 -0.000000 176.599000 -12.556700 -28.812500 39.081100 -0.000007 -0.000012 -0.386975 0.257237 56.387400 40.985400 -0.000006 -0.000013 2.174820 -2.469620 -78.274800 11.754300 -0.000000 0.000003 -0.000337 -0.002867 -16.683900 -2.192510 6.469440 -0.000001 166.930000 11.440900 -176.465000 -39.081100 -0.002282 -0.040193 0.252716 -0.177097 54.631300 -40.985400 0.000008 0.000006 4.686050 11.611300 -42.355200 -11.754300 -0.000006 -0.000006 -0.357495 -0.858451 -54.990000
0.000000 0.000000 0.000000 0.000000 0.000000 -0.000000 -168.491000 84.058500 193.061000 106.295000 82.567100 -15.488600 15.735700 0.000005 -0.000001 103.233000 82.454300 -105.127000 8.984550 -0.406207 -0.000000 6.994360 3.455440 -3.996290 16.377300 -0.000001 -0.000001 -1.579560 -0.562879 -0.225017 6.456720 -0.000001 -0.000000 -5.809570 -2.740880 -2.149650 12.994200 -0.242716 4.980390 -93.413800 8.291660 -67.525600 5.348090 -0.000007 -0.000001 -62.500400 28.324700 -0.707528 24.328600 0.000019 0.000005 3.806250 1.472340 -68.920600 22.291600 -0.000001 0.000005 13.292200 5.621140 -12.698200 12.994500 -0.242716 -4.980390 87.964400 12.788800 -80.878600 -5.348130 -0.000001 -0.000004 -68.464200 27.004400 5.634630 -24.328900 0.000322 -0.000009 -11.967300 -15.783700 -37.926900 -22.291500 -0.000108 -0.000004 18.906800 5.512920 -7.064760 -2.192480 -6.469440 -0.000000 175.735000 -7.888200 -25.038700 39.081100 -0.000007 -0.000012 -0.421708 0.279675 56.448800 40.985400 -0.000006 -0.000013 2.090350 -3.029660 -81.392800 11.754300 -0.000000 0.000003 -0.000404 -0.003334 -16.700500 -2.192510 6.469440 -0.000001 168.209000 10.384800 176.335000 -39.081100 -0.002282 -0.040193 0.322166 -0.146962 65.265200 -40.985400 0.000008 0.000006 1.778120 5.440210 -28.344900 -11.754300 -0.000006 -0.000006 -0.033001 -0.230900 -26.040200
0.000000 0.000000 0.000000 0.000000 0.000000 -0.000000 -164.567000 84.762600 193.174000 135.478000 87.061800 -44.971900 15.735700 0.000005 -0.000001 95.213200 82.735600 -96.892600 8.984550 -0.406207 -0.000000 6.725920 1.331110 -3.433480 16.377300 -0.000001 -0.000001 -1.179070 -1.864880 -0.539696 6.456720 -0.000001 -0.000000 -4.631500 -2.772810 -1.007900 12.994200 -0.242716 4.980390 -93.066700 8.520100 -70.127700 5.348090 -0.000007 -0.000001 -61.716400 29.671200 -21.990200 24.328600 0.000019 0.000005 8.716290 2.165450 -76.096900 22.291600 -0.000001 0.000005 12.859600 5.619220 -12.582300 12.994500 -0.242716 -4.980390 87.576200 12.014000 -78.500900 -5.348130 -0.000001 -0.000004 -67.888800 28.318100 20.316100 -24.328900 0.000322 -0.000009 -7.164980 -12.440300 -30.258000 -22.291500 -0.000108 -0.000004 16.115100 5.516460 -7.221370 -2.192480 -6.469440 -0.000000 176.041000 -5.140460 -20.816600 39.081100 -0.000007 -0.000012 -0.375069 0.278588 53.397200 40.985400 -0.000006 -0.000013 2.926580 -0.952396 -82.638700 11.754300 -0.000000 0.000003 -0.000375 -0.003137 -16.693500 -2.192510 6.469440 -0.000001 170.671000 10.436700 169.012000 -39.081100 -0.002282 -0.040193 0.313894 -0.089356 73.962100 -40.985400 0.000008 0.000006 1.748650 -0.670970 -31.936700 -11.754300 -0.000006 -0.000006 -0.026750 -0.202165 -24.848000
0.000000 0.000000 0.000000 0.000000 0.000000 -0.000000 -160.568000 86.186800 193.723000 -111.093000 87.071400 -158.643000 15.735700 0.000005 -0.000001 75.650400 82.727600 -76.819200 8.984550 -0.406207 -0.000000 6.298960 -3.579330 -2.138420 16.377300 -0.000001 -0.000001 -0.556615 -1.300160 -0.818811 6.456720 -0.000001 -0.000000 -4.006050 0.593869 -0.611390 12.994200 -0.242716 4.980390 -91.125300 3.452420 -71.938000 5.348090 -0.000007 -0.000001 -63.074100 29.489800 -38.174300 24.328600 0.000019 0.000005 14.363300 1.505250 -84.159300 22.291600 -0.000001 0.000005 15.417200 5.574370 -9.934220 12.994500 -0.242716 -4.980390 88.143200 7.811220 -76.579000 -5.348130 -0.000001 -0.000004 -70.404800 33.462400 32.189800 -24.328900 0.000322 -0.000009 -3.673910 -5.871350 -32.110800 -22.291500 -0.000108 -0.000004 12.783100 5.539470 -8.232720 -2.192480 -6.469440 -0.000000 178.335000 -4.240740 -15.258100 39.081100 -0.000007 -0.000012 -0.297838 0.271942 47.602900 40.985400 -0.000006 -0.000013 3.915270 3.073260 -82.606300 11.754300 -0.000000 0.000003 -0.000287 -0.002510 -16.671200 -2.192510 6.469440 -0.000001 174.485000 10.367700 162.765000 -39.081100 -0.002282 -0.040193 0.218672 -0.045521 78.084800 -40.985400 0.000008 0.000006 5.487600 -2.017140 -40.775300 -11.754300 -0.000006 -0.000006 -0.024868 -0.192900 -24.464700
